<svg xmlns="http://www.w3.org/2000/svg" viewBox="0 0 32.24 32.24"><defs><style>.cls-1{fill:#fff;}</style></defs><title>icon-telephone</title><g id="Camada_2" data-name="Camada 2"><g id="Camada_1-2" data-name="Camada 1"><path class="cls-1" d="M0,17.1v-2a1.36,1.36,0,0,0,0-.2,16.28,16.28,0,0,1,1.07-4.72,16.12,16.12,0,0,1,7-8.11A15.81,15.81,0,0,1,14,.15L15.14,0h2l.2,0c.81.12,1.63.2,2.44.38a15.64,15.64,0,0,1,7.1,3.65A16.08,16.08,0,0,1,32.09,14l.15,1.17v2c-.05.39-.1.78-.15,1.17a15.46,15.46,0,0,1-1.61,5.18,16,16,0,0,1-5,5.78,15.75,15.75,0,0,1-7.26,2.87l-1.14.15h-2L14,32.09a15.4,15.4,0,0,1-5.2-1.61A16,16,0,0,1,3,25.5,15.75,15.75,0,0,1,.15,18.24ZM16.12,30.23A14.11,14.11,0,1,0,2,16.14,14.14,14.14,0,0,0,16.12,30.23Z"/><path class="cls-1" d="M7,10.15a1.9,1.9,0,0,1,.76-1.63,10,10,0,0,0,.73-.73A2.27,2.27,0,0,1,12,8a3,3,0,0,1,.55,1.2c.18.7.4,1.39.54,2.09a2.13,2.13,0,0,1-.6,2c-.22.23-.46.44-.67.68a.35.35,0,0,0-.07.28,9,9,0,0,0,5.69,6.06c.67.26.68.26,1.17-.27a2.76,2.76,0,0,1,1.53-.93,2.87,2.87,0,0,1,1.29.12c.68.18,1.37.34,2,.57a2.34,2.34,0,0,1,1.32,3.46,11.19,11.19,0,0,1-1.36,1.44,1.72,1.72,0,0,1-1.1.5,4.94,4.94,0,0,1-.85,0,15.46,15.46,0,0,1-5.7-1.43,15.22,15.22,0,0,1-7.57-7.88A15.69,15.69,0,0,1,7,10.15Z"/></g></g></svg>