<svg xmlns="http://www.w3.org/2000/svg" viewBox="0 0 31.09 31.09"><defs><style>.cls-1{fill:#fff;}</style></defs><title>icon-facebook</title><g id="Camada_2" data-name="Camada 2"><g id="Camada_1-2" data-name="Camada 1"><path class="cls-1" d="M0,15.54A15.54,15.54,0,1,1,15.52,31.09,15.49,15.49,0,0,1,0,15.54Zm19.91-6.4V5.93a35.34,35.34,0,0,0-3.77,0,3.22,3.22,0,0,0-3,2.64,11.72,11.72,0,0,0-.2,1.95c0,.5,0,1,0,1.57H11.14v3.36H13V25h3.94V24.2c0-2.67,0-5.34,0-8,0-.65.19-.82.8-.77s1.26,0,1.92,0L20,12.08H16.93c0-.65,0-1.24,0-1.83,0-.83.29-1.11,1.12-1.11Z"/></g></g></svg>