<svg xmlns="http://www.w3.org/2000/svg" viewBox="0 0 29.21 29.21"><defs><style>.cls-1{fill:#fff;}</style></defs><title>icon-instagram</title><g id="Camada_2" data-name="Camada 2"><g id="Camada_1-2" data-name="Camada 1"><path class="cls-1" d="M29.2,5.85A5.81,5.81,0,0,0,23.38,0H5.82A5.41,5.41,0,0,0,4.66.12,5.81,5.81,0,0,0,0,5.93q0,4.33,0,8.65c0,2.91,0,5.82,0,8.72a5.89,5.89,0,0,0,.11,1.23,5.81,5.81,0,0,0,5.8,4.67H23.29a6.12,6.12,0,0,0,.91-.06,5.79,5.79,0,0,0,5-5.81Q29.21,14.59,29.2,5.85ZM14.58,9A5.62,5.62,0,1,1,8.94,14.6,5.61,5.61,0,0,1,14.58,9Zm11.2,3.83q0,5.49,0,11a1.84,1.84,0,0,1-2,2H5.33a1.83,1.83,0,0,1-1.94-1.43,1.49,1.49,0,0,1,0-.36q0-5.69,0-11.39c0-.06,0-.12,0-.22H5.83A8.9,8.9,0,0,0,8.32,21a8.62,8.62,0,0,0,6.8,2.53A9,9,0,0,0,23.3,12.43h2.48ZM25.7,7.66A1.76,1.76,0,0,1,24,9.05c-.67,0-1.34,0-2,0a1.84,1.84,0,0,1-1.8-1.83c0-.64,0-1.29,0-1.93A1.84,1.84,0,0,1,22,3.43h1.9a1.83,1.83,0,0,1,1.84,1.83c0,.33,0,.66,0,1h0A9.73,9.73,0,0,1,25.7,7.66Z"/></g></g></svg>