<svg xmlns="http://www.w3.org/2000/svg" viewBox="0 0 27.75 27.73"><defs><style>.cls-1{fill:#fff;}</style></defs><title>icon-behance</title><g id="Camada_2" data-name="Camada 2"><g id="Camada_1-2" data-name="Camada 1"><path class="cls-1" d="M0,27.73V0H27.75V27.73Zm4.46-8h.39c1.54,0,3.08,0,4.61,0a16,16,0,0,0,1.81-.12,3.38,3.38,0,0,0,3-2.86,2.94,2.94,0,0,0-1.74-3.48h0a6.37,6.37,0,0,0,.84-.71,3.06,3.06,0,0,0-.46-4.12,3.81,3.81,0,0,0-2.36-.76c-2,0-3.91,0-5.86,0H4.46Zm19.38-3.82c0-.41,0-.77,0-1.13a4.31,4.31,0,0,0-1.62-3.37,4.59,4.59,0,0,0-3.05-.84,4.07,4.07,0,0,0-4,3.15,6.94,6.94,0,0,0-.07,3,3.58,3.58,0,0,0,2.1,2.78,5.65,5.65,0,0,0,1.62.5,4.51,4.51,0,0,0,3.77-1,3.11,3.11,0,0,0,1.09-1.82H21.49a.26.26,0,0,0-.18.12,2,2,0,0,1-2,.89,2,2,0,0,1-1.91-2.22Zm-2-7.54H16.68V9.57h5.21Z"/><path class="cls-1" d="M6.82,17.67v-3.2a1.46,1.46,0,0,1,.22,0h3a2.78,2.78,0,0,1,.5.06A1.34,1.34,0,0,1,11.79,16a1.42,1.42,0,0,1-1.28,1.55c-.64.07-1.3.06-1.95.07Z"/><path class="cls-1" d="M6.83,12.51V9.81l.16,0h3a4.14,4.14,0,0,1,.43.05c1.11.13,1.21.87,1.09,1.67a1,1,0,0,1-.88.82C9.36,12.43,8.1,12.45,6.83,12.51Z"/><path class="cls-1" d="M21.41,14.4H17.47a1.88,1.88,0,0,1,2-1.9A1.84,1.84,0,0,1,21.41,14.4Z"/></g></g></svg>