<svg xmlns="http://www.w3.org/2000/svg" viewBox="0 0 29.03 20.77"><defs><style>.cls-1{fill:#fff;}</style></defs><title>icon-email</title><g id="Camada_2" data-name="Camada 2"><g id="Camada_1-2" data-name="Camada 1"><path class="cls-1" d="M28.39.56,14.51,12.45.66.57A1.92,1.92,0,0,1,1.91,0a2.83,2.83,0,0,1,.32,0H26.79A2.21,2.21,0,0,1,28.39.56Z"/><path class="cls-1" d="M28.38,20.21a2,2,0,0,1-1.39.56H2.21a2.17,2.17,0,0,1-1.57-.56l10.27-8.8,3.6,3.15,3.6-3.15Z"/><path class="cls-1" d="M19,10.55,29,1.86V19Z"/><path class="cls-1" d="M10,10.55,0,19V1.87Z"/></g></g></svg>